<svg width="21" height="12" viewBox="0 0 21 12" fill="none" xmlns="http://www.w3.org/2000/svg">
<g clip-path="url(#clip0_621_2173)">
<path d="M6.6875 3.50568C6.64205 3.04735 6.44697 2.69129 6.10227 2.4375C5.75758 2.18371 5.28977 2.05682 4.69886 2.05682C4.29735 2.05682 3.95833 2.11364 3.68182 2.22727C3.4053 2.33712 3.19318 2.49053 3.04545 2.6875C2.90152 2.88447 2.82955 3.10795 2.82955 3.35795C2.82197 3.56629 2.86553 3.74811 2.96023 3.90341C3.05871 4.05871 3.19318 4.19318 3.36364 4.30682C3.53409 4.41667 3.73106 4.51326 3.95455 4.59659C4.17803 4.67614 4.41667 4.74432 4.67045 4.80114L5.71591 5.05114C6.22349 5.16477 6.68939 5.31629 7.11364 5.50568C7.53788 5.69508 7.9053 5.92803 8.21591 6.20455C8.52652 6.48106 8.76705 6.80682 8.9375 7.18182C9.11174 7.55682 9.20076 7.98674 9.20455 8.47159C9.20076 9.18371 9.01894 9.80114 8.65909 10.3239C8.30303 10.8428 7.78788 11.2462 7.11364 11.5341C6.44318 11.8182 5.63447 11.9602 4.6875 11.9602C3.74811 11.9602 2.92992 11.8163 2.23295 11.5284C1.53977 11.2405 0.998106 10.8144 0.607955 10.25C0.221591 9.68182 0.0189394 8.97917 0 8.14205L2.38068 8.14205C2.4072 8.5322 2.51894 8.85795 2.71591 9.11932C2.91667 9.37689 3.18371 9.57197 3.51705 9.70455C3.85417 9.83333 4.23485 9.89773 4.65909 9.89773C5.07576 9.89773 5.4375 9.83712 5.74432 9.71591C6.05492 9.5947 6.29545 9.42614 6.46591 9.21023C6.63636 8.99432 6.72159 8.74621 6.72159 8.46591C6.72159 8.20455 6.64394 7.98485 6.48864 7.80682C6.33712 7.62879 6.11364 7.47727 5.81818 7.35227C5.52652 7.22727 5.16856 7.11364 4.74432 7.01136L3.47727 6.69318C2.49621 6.45455 1.72159 6.08144 1.15341 5.57386C0.585227 5.06629 0.30303 4.38258 0.306818 3.52273C0.30303 2.81818 0.49053 2.20265 0.869318 1.67614C1.25189 1.14962 1.77652 0.738637 2.44318 0.443182C3.10985 0.147727 3.86742 0 4.71591 0C5.57955 0 6.33333 0.147727 6.97727 0.443182C7.625 0.738637 8.12879 1.14962 8.48864 1.67614C8.84848 2.20265 9.03409 2.8125 9.04545 3.50568L6.6875 3.50568Z" fill="black"/>
<path d="M13.3196 4.96023L18.3139 4.96023L18.3139 0.159091L20.7685 0.159091L20.7685 11.7955L18.3139 11.7955L18.3139 6.98864L13.3196 6.98864L13.3196 4.96023Z" fill="black"/>
<path d="M12.4101 1.03776C12.4757 1.03125 12.5267 1.00332 12.563 0.953955C12.5994 0.904593 12.6176 0.837601 12.6176 0.75298C12.6176 0.695481 12.6094 0.646932 12.5932 0.607334C12.5774 0.567735 12.5555 0.537358 12.5272 0.516203C12.499 0.49559 12.467 0.485284 12.4312 0.485284C12.4014 0.484199 12.3754 0.490437 12.3531 0.503998C12.3309 0.518102 12.3116 0.537358 12.2954 0.561768C12.2796 0.586178 12.2658 0.614386 12.2539 0.64639C12.2425 0.678394 12.2327 0.712568 12.2246 0.748912L12.1888 0.898626C12.1725 0.971314 12.1508 1.03803 12.1237 1.09879C12.0965 1.15954 12.0632 1.21216 12.0236 1.25664C11.984 1.30112 11.9373 1.33556 11.8836 1.35997C11.8299 1.38493 11.7684 1.39767 11.6989 1.39822C11.597 1.39767 11.5085 1.37164 11.4337 1.32011C11.3594 1.26912 11.3016 1.19534 11.2604 1.09879C11.2197 1.00278 11.1993 0.886964 11.1993 0.751353C11.1993 0.616827 11.22 0.499659 11.2612 0.399849C11.3024 0.300582 11.3634 0.223012 11.4443 0.167141C11.5256 0.111811 11.6262 0.0827905 11.7461 0.0800783L11.7461 0.421004C11.6903 0.424801 11.6436 0.440804 11.6062 0.469011C11.5693 0.49776 11.5414 0.536003 11.5224 0.583738C11.5039 0.632015 11.4947 0.686531 11.4947 0.747284C11.4947 0.806953 11.5034 0.858757 11.5207 0.902695C11.5381 0.947175 11.5622 0.98162 11.5932 1.00603C11.6241 1.03044 11.6596 1.04265 11.6997 1.04265C11.7372 1.04265 11.7686 1.03153 11.7941 1.00928C11.8196 0.987587 11.8413 0.955583 11.8592 0.913272C11.8771 0.871504 11.8934 0.820243 11.908 0.759489L11.9536 0.578042C11.9878 0.437549 12.0412 0.326619 12.1139 0.245252C12.1866 0.163886 12.2845 0.123474 12.4076 0.124016C12.5085 0.123474 12.5967 0.150325 12.6721 0.204569C12.7475 0.259356 12.8063 0.334484 12.8486 0.429955C12.891 0.525425 12.9121 0.633913 12.9121 0.755421C12.9121 0.879098 12.891 0.987045 12.8486 1.07926C12.8063 1.17202 12.7475 1.24416 12.6721 1.2957C12.5967 1.34723 12.5093 1.37381 12.4101 1.37543L12.4101 1.03776Z" fill="black"/>
<path d="M11.2229 1.6352L12.8893 1.6352L12.8893 1.98751L12.2018 1.98751L12.2018 2.70273L12.8893 2.70273L12.8893 3.05423L11.2229 3.05423L11.2229 2.70273L11.9113 2.70273L11.9113 1.98751L11.2229 1.98751L11.2229 1.6352Z" fill="black"/>
<path d="M11.2229 3.63193L11.2229 3.25439L12.8893 3.82965L12.8893 4.28368L11.2229 4.85813L11.2229 4.48059L12.5085 4.06318L12.5085 4.05016L11.2229 3.63193ZM11.8779 3.60834L11.8779 4.50012L11.6029 4.50012L11.6029 3.60834L11.8779 3.60834Z" fill="black"/>
<path d="M11.2229 5.0587L12.8893 5.0587L12.8893 5.41101L12.2018 5.41101L12.2018 6.12623L12.8893 6.12623L12.8893 6.47773L11.2229 6.47773L11.2229 6.12623L11.9113 6.12623L11.9113 5.41101L11.2229 5.41101L11.2229 5.0587Z" fill="black"/>
<path d="M11.2229 6.76821L12.8893 6.76821L12.8893 7.42565C12.8893 7.5515 12.8668 7.6589 12.8218 7.74786C12.7773 7.83737 12.7141 7.90544 12.6322 7.95209C12.5508 7.99929 12.4551 8.02288 12.345 8.02288C12.2343 8.02288 12.1391 7.99901 12.0594 7.95128C11.9802 7.90354 11.9194 7.83438 11.8771 7.74379C11.8348 7.65375 11.8137 7.54472 11.8137 7.4167L11.8137 6.97651L12.0968 6.97651L12.0968 7.35974C12.0968 7.42701 12.106 7.48288 12.1245 7.52736C12.1429 7.57184 12.1706 7.60493 12.2075 7.62663C12.2444 7.64887 12.2902 7.65999 12.345 7.65999C12.4003 7.65999 12.447 7.64887 12.4849 7.62663C12.5229 7.60493 12.5517 7.57157 12.5712 7.52655C12.5913 7.48207 12.6013 7.42592 12.6013 7.35812L12.6013 7.12053L11.2229 7.12053L11.2229 6.76821ZM11.9813 7.66812L11.2229 8.08228L11.2229 7.69335L11.9813 7.28814L11.9813 7.66812Z" fill="black"/>
<path d="M12.8893 8.62418L11.2229 8.62418L11.2229 8.27186L12.8893 8.27186L12.8893 8.62418Z" fill="black"/>
<path d="M11.2229 9.50477L11.2229 8.91405L12.8893 8.91405L12.8893 9.50965C12.8893 9.67727 12.856 9.82156 12.7892 9.94252C12.7231 10.0635 12.6279 10.1565 12.5037 10.2216C12.3794 10.2872 12.2308 10.3201 12.0578 10.3201C11.8842 10.3201 11.735 10.2872 11.6102 10.2216C11.4855 10.1565 11.3897 10.0629 11.323 9.9409C11.2563 9.81939 11.2229 9.67401 11.2229 9.50477ZM11.5248 9.26637L11.5248 9.49012C11.5248 9.59427 11.5433 9.68188 11.5801 9.75294C11.6176 9.82454 11.6753 9.87824 11.7535 9.91405C11.8321 9.95039 11.9335 9.96856 12.0578 9.96856C12.1809 9.96856 12.2815 9.95039 12.3596 9.91405C12.4377 9.87824 12.4952 9.82481 12.5321 9.75375C12.569 9.68269 12.5875 9.59509 12.5875 9.49094L12.5875 9.26637L11.5248 9.26637Z" fill="black"/>
<path d="M11.2229 10.7743L11.2229 10.3968L12.8893 10.972L12.8893 11.426L11.2229 12.0005L11.2229 11.6229L12.5085 11.2055L12.5085 11.1925L11.2229 10.7743ZM11.8779 10.7507L11.8779 11.6425L11.6029 11.6425L11.6029 10.7507L11.8779 10.7507Z" fill="black"/>
</g>
<defs>
<clipPath id="clip0_621_2173">
<rect width="20.7685" height="12.0005" fill="white"/>
</clipPath>
</defs>
</svg>
